<?xml version="1.0" encoding="UTF-8" standalone="no"?>
<svg
   height="16"
   viewBox="0 0 16 16"
   width="16"
   version="1.1"
   id="svg1"
   sodipodi:docname="GridNode.svg"
   inkscape:version="1.3.2 (091e20e, 2023-11-25, custom)"
   xmlns:inkscape="http://www.inkscape.org/namespaces/inkscape"
   xmlns:sodipodi="http://sodipodi.sourceforge.net/DTD/sodipodi-0.dtd"
   xmlns="http://www.w3.org/2000/svg"
   xmlns:svg="http://www.w3.org/2000/svg">
  <defs
     id="defs1">
    <inkscape:path-effect
       effect="powermask"
       id="path-effect2"
       is_visible="true"
       lpeversion="1"
       uri="#mask-powermask-path-effect2"
       invert="false"
       hide_mask="false"
       background="true"
       background_color="#ffffffff" />
    <inkscape:path-effect
       effect="powermask"
       id="path-effect79"
       is_visible="true"
       lpeversion="1"
       uri="#mask-powermask-path-effect79"
       invert="false"
       hide_mask="false"
       background="true"
       background_color="#ffffffff" />
    <filter
       id="mask-powermask-path-effect2_inverse"
       inkscape:label="filtermask-powermask-path-effect2"
       style="color-interpolation-filters:sRGB"
       height="100"
       width="100"
       x="-50"
       y="-50">
      <feColorMatrix
         id="mask-powermask-path-effect2_primitive1"
         values="1"
         type="saturate"
         result="fbSourceGraphic" />
      <feColorMatrix
         id="mask-powermask-path-effect2_primitive2"
         values="-1 0 0 0 1 0 -1 0 0 1 0 0 -1 0 1 0 0 0 1 0 "
         in="fbSourceGraphic" />
    </filter>
    <mask
       maskUnits="userSpaceOnUse"
       id="mask-powermask-path-effect2">
      <path
         id="mask-powermask-path-effect2_box"
         style="fill:#ffffff;fill-opacity:1"
         d="M 0,0 H 16 V 16 H 0 Z" />
      <circle
         fill="none"
         stroke-width="2"
         stroke="#8da5f3"
         id="circle2"
         style="stroke:#000000;stroke-width:3.75;stroke-dasharray:none;stroke-opacity:1"
         r="5"
         cy="8"
         cx="8"
         d="M 13,8 A 5,5 0 0 1 8,13 5,5 0 0 1 3,8 5,5 0 0 1 8,3 5,5 0 0 1 13,8 Z" />
    </mask>
  </defs>
  <sodipodi:namedview
     id="namedview1"
     pagecolor="#ffffff"
     bordercolor="#000000"
     borderopacity="0.25"
     inkscape:showpageshadow="2"
     inkscape:pageopacity="0.0"
     inkscape:pagecheckerboard="0"
     inkscape:deskcolor="#d1d1d1"
     showguides="true"
     inkscape:zoom="73.3125"
     inkscape:cx="8"
     inkscape:cy="7.5907928"
     inkscape:window-width="2560"
     inkscape:window-height="1369"
     inkscape:window-x="2552"
     inkscape:window-y="-5"
     inkscape:window-maximized="1"
     inkscape:current-layer="svg1" />
  <path
     d="M 1,1 V 3 H 3 V 1 Z M 4,1 V 3 H 6 V 1 Z M 7,1 V 3 H 9 V 1 Z m 3,0 v 2 h 2 V 1 Z m 3,0 v 2 h 2 V 1 Z M 1,4 V 6 H 3 V 4 Z M 4,4 V 6 H 6 V 4 Z M 7,4 V 6 H 9 V 4 Z m 3,0 v 2 h 2 V 4 Z m 3,0 v 2 h 2 V 4 Z M 1,7 V 9 H 3 V 7 Z M 4,7 V 9 H 6 V 7 Z M 7,7 V 9 H 9 V 7 Z m 3,0 v 2 h 2 V 7 Z m 3,0 v 2 h 2 V 7 Z M 1,10 v 2 h 2 v -2 z m 3,0 v 2 h 2 v -2 z m 3,0 v 2 h 2 v -2 z m 3,0 v 2 h 2 v -2 z m 3,0 v 2 h 2 V 10 Z M 1,13 v 2 h 2 v -2 z m 3,0 v 2 h 2 v -2 z m 3,0 v 2 h 2 v -2 z m 3,0 v 2 h 2 v -2 z m 3,0 v 2 h 2 v -2 z"
     fill="#8da5f3"
     id="path1"
     clip-path="none"
     mask="url(#mask-powermask-path-effect2)"
     inkscape:path-effect="#path-effect2"
     inkscape:original-d="M1 1v2h2V1zm3 0v2h2V1zm3 0v2h2V1zm3 0v2h2V1zm3 0v2h2V1zM1 4v2h2V4zm3 0v2h2V4zm3 0v2h2V4zm3 0v2h2V4zm3 0v2h2V4zM1 7v2h2V7zm3 0v2h2V7zm3 0v2h2V7zm3 0v2h2V7zm3 0v2h2V7zM1 10v2h2v-2zm3 0v2h2v-2zm3 0v2h2v-2zm3 0v2h2v-2zm3 0v2h2v-2zM1 13v2h2v-2zm3 0v2h2v-2zm3 0v2h2v-2zm3 0v2h2v-2zm3 0v2h2v-2z" />
  <circle
     fill="none"
     stroke-width="2"
     stroke="#8da5f3"
     id="circle1-2"
     style="stroke-width:2;stroke-dasharray:none"
     r="5"
     cy="8"
     cx="8" />
</svg>
