<?xml version="1.0" encoding="UTF-8" standalone="no"?>
<svg
   height="16"
   viewBox="0 0 16 16"
   width="16"
   version="1.1"
   id="svg1"
   sodipodi:docname="GridNodeGroup.svg"
   inkscape:version="1.4.2 (f4327f4, 2025-05-13)"
   xmlns:inkscape="http://www.inkscape.org/namespaces/inkscape"
   xmlns:sodipodi="http://sodipodi.sourceforge.net/DTD/sodipodi-0.dtd"
   xmlns="http://www.w3.org/2000/svg"
   xmlns:svg="http://www.w3.org/2000/svg">
  <defs
     id="defs1">
    <inkscape:path-effect
       effect="powerclip"
       message=""
       id="path-effect2"
       is_visible="true"
       lpeversion="1"
       inverse="true"
       flatten="false"
       hide_clip="false" />
    <clipPath
       clipPathUnits="userSpaceOnUse"
       id="clipPath2">
      <path
         id="lpe_path-effect2"
         style="fill:#e0e0e0;fill-opacity:1;stroke:none;stroke-width:2;stroke-linejoin:round;stroke-dasharray:none;stroke-opacity:1"
         class="powerclip"
         d="M -2,-2 H 14 V 14 H -2 Z M 10,7 A 3,3 0 0 0 7,4 3,3 0 0 0 4,7 3,3 0 0 0 7,10 3,3 0 0 0 10,7 Z" />
    </clipPath>
    <clipPath
       clipPathUnits="userSpaceOnUse"
       id="clipPath2-4">
      <circle
         style="display:none;fill:#e0e0e0;fill-opacity:1;stroke:none;stroke-width:2;stroke-linejoin:round;stroke-dasharray:none;stroke-opacity:1"
         id="circle2-5"
         cx="7"
         cy="7"
         r="3"
         d="M 10,7 A 3,3 0 0 1 7,10 3,3 0 0 1 4,7 3,3 0 0 1 7,4 3,3 0 0 1 10,7 Z" />
      <path
         id="lpe_path-effect2-5"
         style="fill:#e0e0e0;fill-opacity:1;stroke:none;stroke-width:2;stroke-linejoin:round;stroke-dasharray:none;stroke-opacity:1"
         class="powerclip"
         d="M -2,-2 H 14 V 14 H -2 Z M 10,7 A 3,3 0 0 0 7,4 3,3 0 0 0 4,7 3,3 0 0 0 7,10 3,3 0 0 0 10,7 Z" />
    </clipPath>
    <inkscape:path-effect
       effect="powerclip"
       message=""
       id="path-effect2-1"
       is_visible="true"
       lpeversion="1"
       inverse="true"
       flatten="false"
       hide_clip="false" />
    <clipPath
       clipPathUnits="userSpaceOnUse"
       id="clipath_lpe_path-effect2-1">
      <circle
         style="display:none;fill:#e0e0e0;fill-opacity:1;stroke:none;stroke-width:2;stroke-linejoin:round;stroke-dasharray:none;stroke-opacity:1"
         id="circle3"
         cx="7"
         cy="7"
         r="3" />
    </clipPath>
  </defs>
  <sodipodi:namedview
     id="namedview1"
     pagecolor="#ffffff"
     bordercolor="#000000"
     borderopacity="0.25"
     inkscape:showpageshadow="2"
     inkscape:pageopacity="0.0"
     inkscape:pagecheckerboard="0"
     inkscape:deskcolor="#d1d1d1"
     showgrid="true"
     inkscape:zoom="50.8125"
     inkscape:cx="7.9901599"
     inkscape:cy="8"
     inkscape:window-width="1920"
     inkscape:window-height="1094"
     inkscape:window-x="-11"
     inkscape:window-y="-11"
     inkscape:window-maximized="1"
     inkscape:current-layer="svg1">
    <inkscape:grid
       id="grid1"
       units="px"
       originx="0"
       originy="0"
       spacingx="1"
       spacingy="1"
       empcolor="#0099e5"
       empopacity="0.30196078"
       color="#0099e5"
       opacity="0.14901961"
       empspacing="5"
       enabled="true"
       visible="true" />
  </sodipodi:namedview>
  <rect
     style="fill:none;fill-opacity:1;stroke:#e0e0e0;stroke-width:2;stroke-linejoin:round;stroke-dasharray:none;stroke-opacity:1"
     id="rect1"
     width="14"
     height="14"
     x="1"
     y="1"
     ry="1"
     rx="1" />
  <path
     id="path1"
     transform="matrix(1.3301981,0,0,1.3301981,-1.213661,-1.2333411)"
     clip-path="url(#clipPath2)"
     d="M 9,6 A 3,3 0 0 1 6,9 3,3 0 0 1 3,6 3,3 0 0 1 6,3 3,3 0 0 1 9,6 Z"
     style="fill:#e0e0e0;fill-opacity:1;stroke:none;stroke-width:2;stroke-linejoin:round;stroke-dasharray:none;stroke-opacity:1" />
  <circle
     style="fill:#e0e0e0;fill-opacity:1;stroke:none;stroke-width:2.66913;stroke-linejoin:round;stroke-dasharray:none;stroke-opacity:1"
     id="path2"
     cx="9.318574"
     cy="9.2952032"
     r="4.0036902" />
</svg>
