<?xml version="1.0" encoding="UTF-8" standalone="no"?>
<svg
   width="100%"
   height="100%"
   viewBox="0 0 32 32"
   version="1.1"
   xml:space="preserve"
   style="fill-rule:evenodd;clip-rule:evenodd;stroke-linecap:round;stroke-linejoin:round;stroke-miterlimit:1.5;"
   id="svg4"
   sodipodi:docname="compound_state.svg"
   inkscape:version="1.3.2 (091e20e, 2023-11-25, custom)"
   xmlns:inkscape="http://www.inkscape.org/namespaces/inkscape"
   xmlns:sodipodi="http://sodipodi.sourceforge.net/DTD/sodipodi-0.dtd"
   xmlns="http://www.w3.org/2000/svg"
   xmlns:svg="http://www.w3.org/2000/svg"
   xmlns:serif="http://www.serif.com/"><defs
   id="defs4" /><sodipodi:namedview
   id="namedview4"
   pagecolor="#ffffff"
   bordercolor="#000000"
   borderopacity="0.25"
   inkscape:showpageshadow="2"
   inkscape:pageopacity="0.0"
   inkscape:pagecheckerboard="0"
   inkscape:deskcolor="#d1d1d1"
   inkscape:zoom="36.65625"
   inkscape:cx="16"
   inkscape:cy="16"
   inkscape:window-width="2560"
   inkscape:window-height="1369"
   inkscape:window-x="-8"
   inkscape:window-y="-8"
   inkscape:window-maximized="1"
   inkscape:current-layer="svg4" />
    <rect
   id="Artboard1"
   x="0"
   y="0"
   width="32"
   height="32"
   style="fill:none;" />
    <g
   id="Artboard11"
   serif:id="Artboard1">
        <g
   transform="matrix(1.03705,0,0,1.03705,-0.460588,-0.659827)"
   id="g1">
            <g
   id="BG">
                <path
   d="M30.337,8.833C30.337,4.841 27.096,1.601 23.104,1.601L8.64,1.601C4.649,1.601 1.408,4.841 1.408,8.833L1.408,23.297C1.408,27.288 4.649,30.529 8.64,30.529L23.104,30.529C27.096,30.529 30.337,27.288 30.337,23.297L30.337,8.833Z"
   style="fill:none;stroke:#e0e0e0;stroke-width:0.96px;stroke-opacity:1"
   id="path1" />
            </g>
        </g>
        <g
   id="CompoundState">
            <path
   d="M7.984,22.271L16.112,8.238L24.694,22.425L7.984,22.271Z"
   style="fill:none;stroke:#e1e1e1;stroke-width:2px;stroke-opacity:1"
   id="path2" />
            <g
   transform="matrix(1.36246,0,0,1.36246,-18.1682,-4.24482)"
   id="g2">
                <circle
   cx="19.207"
   cy="19.263"
   r="4.404"
   style="fill:#e0e0e0;fill-opacity:1"
   id="circle2" />
            </g>
            <g
   transform="matrix(1.36246,0,0,1.36246,-2.16822,-4.24482)"
   id="g3">
                <circle
   cx="19.207"
   cy="19.263"
   r="4.404"
   style="fill:#e0e0e0;fill-opacity:1"
   id="circle3" />
            </g>
            <g
   transform="matrix(1.36246,0,0,1.36246,-10.1682,-17.6299)"
   id="g4">
                <circle
   cx="19.207"
   cy="19.263"
   r="4.404"
   style="fill:#e0e0e0;fill-opacity:1"
   id="circle4" />
            </g>
        </g>
    </g>
</svg>
