<?xml version="1.0" encoding="UTF-8" standalone="no"?>
<svg
   width="100%"
   height="100%"
   viewBox="0 0 32 32"
   version="1.1"
   xml:space="preserve"
   style="fill-rule:evenodd;clip-rule:evenodd;stroke-linecap:round;stroke-linejoin:round;stroke-miterlimit:1.5;"
   id="svg4"
   sodipodi:docname="expression_guard.svg"
   inkscape:version="1.3.2 (091e20e, 2023-11-25, custom)"
   xmlns:inkscape="http://www.inkscape.org/namespaces/inkscape"
   xmlns:sodipodi="http://sodipodi.sourceforge.net/DTD/sodipodi-0.dtd"
   xmlns="http://www.w3.org/2000/svg"
   xmlns:svg="http://www.w3.org/2000/svg"
   xmlns:serif="http://www.serif.com/"><defs
   id="defs4"><inkscape:path-effect
     effect="powerclip"
     id="path-effect9"
     is_visible="true"
     lpeversion="1"
     inverse="true"
     flatten="false"
     hide_clip="false"
     message="Use fill-rule evenodd on &lt;b&gt;fill and stroke&lt;/b&gt; dialog if no flatten result after convert clip to paths." /><inkscape:path-effect
     effect="powerclip"
     id="path-effect7"
     is_visible="true"
     lpeversion="1"
     inverse="true"
     flatten="false"
     hide_clip="false"
     message="Use fill-rule evenodd on &lt;b&gt;fill and stroke&lt;/b&gt; dialog if no flatten result after convert clip to paths." /><clipPath
     clipPathUnits="userSpaceOnUse"
     id="clipPath8"><g
       transform="translate(-0.935784,3.97014)"
       id="g9"
       style="display:none">
                <g
   transform="matrix(16,0,0,16,13.8846,17.7302)"
   id="g8">
                    
                <path
   d="m 13.668816,21.70034 1.52,-7.2 h -1.264 l 0.224,-1.104 h 1.264 l 0.24,-1.168 c 0.128,-0.592 0.256,-1.024 0.384,-1.28 0.128,-0.256 0.352,-0.48 0.656,-0.64 0.288,-0.176 0.704,-0.256 1.216,-0.256 0.368,0 0.88,0.08 1.568,0.224 l -0.256,1.232 c -0.48,-0.128 -0.88,-0.176 -1.216,-0.176 -0.272,0 -0.48,0.064 -0.624,0.208 -0.144,0.128 -0.272,0.464 -0.368,0.976 l -0.192,0.88 h 1.584 l -0.224,1.104 h -1.584 l -1.504,7.2 z"
   style="clip-rule:evenodd;display:block;fill-rule:nonzero;stroke-width:16;stroke-linecap:round;stroke-linejoin:round;stroke-miterlimit:1.5"
   id="path8"
   inkscape:label="path3"
   clip-path="none"
   transform="matrix(0.0625,0,0,0.0625,-0.809301,-1.3562712)" /></g>
            </g><path
       id="lpe_path-effect9"
       class="powerclip"
       d="M 0.94301289,1.7235611 H 31.056989 V 31.584643 H 0.94301289 Z M 13.668816,21.70034 h 1.424 l 1.504,-7.2 h 1.584 l 0.224,-1.104 h -1.584 l 0.192,-0.88 c 0.096,-0.512 0.224,-0.848 0.368,-0.976 0.144,-0.144 0.352,-0.208 0.624,-0.208 0.336,0 0.736,0.048 1.216,0.176 l 0.256,-1.232 c -0.688,-0.144 -1.2,-0.224 -1.568,-0.224 -0.512,0 -0.928,0.08 -1.216,0.256 -0.304,0.16 -0.528,0.384 -0.656,0.64 -0.128,0.256 -0.256,0.688 -0.384,1.28 l -0.24,1.168 h -1.264 l -0.224,1.104 h 1.264 z" /></clipPath></defs><sodipodi:namedview
   id="namedview4"
   pagecolor="#ffffff"
   bordercolor="#000000"
   borderopacity="0.25"
   inkscape:showpageshadow="2"
   inkscape:pageopacity="0.0"
   inkscape:pagecheckerboard="0"
   inkscape:deskcolor="#d1d1d1"
   inkscape:zoom="36.65625"
   inkscape:cx="16"
   inkscape:cy="16"
   inkscape:window-width="2560"
   inkscape:window-height="1369"
   inkscape:window-x="-8"
   inkscape:window-y="-8"
   inkscape:window-maximized="1"
   inkscape:current-layer="Guard" />
    <rect
   id="Artboard1"
   x="0"
   y="0"
   width="32"
   height="32"
   style="fill:none;" />
    <g
   id="Artboard11"
   serif:id="Artboard1">
        <g
   transform="matrix(1.03705,0,0,1.03705,-0.460588,-0.659827)"
   id="g1">
            <g
   id="BG">
                <path
   d="M30.337,8.833C30.337,4.841 27.096,1.601 23.104,1.601L8.64,1.601C4.649,1.601 1.408,4.841 1.408,8.833L1.408,23.297C1.408,27.288 4.649,30.529 8.64,30.529L23.104,30.529C27.096,30.529 30.337,27.288 30.337,23.297L30.337,8.833Z"
   style="fill:none;stroke:#e0e0e0;stroke-width:0.96px;stroke-opacity:1"
   id="path1" />
            </g>
        </g>
        <g
   id="Guard"
   clip-path="none">
            <path
   d="m 15.997,7.724 c 5.058,-0.041 9.06,2.831 9.06,2.831 0,0 -3.245,15.142 -9.054,15.029 -5.459,-0.107 -9.06,-14.94 -9.06,-14.94 0,0 3.92,-2.879 9.054,-2.92 z"
   style="fill:#e0e0e0;stroke:#e0e0e0;stroke-width:2px;stroke-opacity:1;fill-opacity:1"
   id="path2"
   clip-path="url(#clipPath8)"
   inkscape:path-effect="#path-effect9"
   inkscape:original-d="M15.997,7.724C21.055,7.683 25.057,10.555 25.057,10.555C25.057,10.555 21.812,25.697 16.003,25.584C10.544,25.477 6.943,10.644 6.943,10.644C6.943,10.644 10.863,7.765 15.997,7.724Z" />
            
        </g>
    </g>
</svg>
