<?xml version="1.0" encoding="UTF-8" standalone="no"?>
<svg
   width="100%"
   height="100%"
   viewBox="0 0 32 32"
   version="1.1"
   xml:space="preserve"
   style="fill-rule:evenodd;clip-rule:evenodd;stroke-linecap:round;stroke-linejoin:round;stroke-miterlimit:1.5;"
   id="svg3"
   sodipodi:docname="state_is_active_guard.svg"
   inkscape:version="1.3.2 (091e20e, 2023-11-25, custom)"
   xmlns:inkscape="http://www.inkscape.org/namespaces/inkscape"
   xmlns:sodipodi="http://sodipodi.sourceforge.net/DTD/sodipodi-0.dtd"
   xmlns="http://www.w3.org/2000/svg"
   xmlns:svg="http://www.w3.org/2000/svg"
   xmlns:serif="http://www.serif.com/"><defs
   id="defs3"><inkscape:path-effect
     effect="powerclip"
     id="path-effect7"
     is_visible="true"
     lpeversion="1"
     inverse="true"
     flatten="false"
     hide_clip="false"
     message="Use fill-rule evenodd on &lt;b&gt;fill and stroke&lt;/b&gt; dialog if no flatten result after convert clip to paths." /><clipPath
     clipPathUnits="userSpaceOnUse"
     id="clipPath7"><path
       d="m 15.28969,19.003727 q -0.0078,-0.28125 -0.0078,-0.421875 0,-0.828125 0.234375,-1.429687 0.171875,-0.453125 0.554687,-0.914063 0.28125,-0.335937 1.007813,-0.976562 0.734375,-0.648438 0.953125,-1.03125 0.21875,-0.382813 0.21875,-0.835938 0,-0.820312 -0.640625,-1.4375 -0.640625,-0.625 -1.570313,-0.625 -0.898437,0 -1.5,0.5625 -0.601562,0.5625 -0.789062,1.757813 L 12.305327,13.48029 q 0.195313,-1.601563 1.15625,-2.453125 0.96875,-0.851563 2.554688,-0.851563 1.679687,0 2.679687,0.914063 1,0.914062 1,2.210937 0,0.75 -0.351562,1.382813 -0.351563,0.632812 -1.375,1.539062 -0.6875,0.609375 -0.898438,0.898438 -0.210937,0.289062 -0.3125,0.664062 -0.101562,0.375 -0.117187,1.21875 z m -0.08594,2.820313 v -1.601563 h 1.601562 v 1.601563 z"
       id="path7"
       style="font-size:16px;font-family:ArialMT, Arial, sans-serif;display:none"
       aria-label="?" /><path
       id="lpe_path-effect7"
       style="font-size:16px;font-family:ArialMT, Arial, sans-serif"
       class="powerclip"
       d="M 0.94301289,1.7235611 H 31.056989 V 31.584643 H 0.94301289 Z M 15.28969,19.003727 h 1.351575 q 0.01563,-0.84375 0.117187,-1.21875 0.101563,-0.375 0.3125,-0.664062 0.210938,-0.289063 0.898438,-0.898438 1.023437,-0.90625 1.375,-1.539062 0.351562,-0.632813 0.351562,-1.382813 0,-1.296875 -1,-2.210937 -1,-0.914063 -2.679687,-0.914063 -1.585938,0 -2.554688,0.851563 -0.960937,0.851562 -1.15625,2.453125 l 1.445313,0.171875 q 0.1875,-1.195313 0.789062,-1.757813 0.601563,-0.5625 1.5,-0.5625 0.929688,0 1.570313,0.625 0.640625,0.617188 0.640625,1.4375 0,0.453125 -0.21875,0.835938 -0.21875,0.382812 -0.953125,1.03125 -0.726563,0.640625 -1.007813,0.976562 -0.382812,0.460938 -0.554687,0.914063 -0.234375,0.601562 -0.234375,1.429687 0,0.140625 0.0078,0.421875 z m -0.08594,2.820313 h 1.601562 V 20.222477 H 15.20375 Z" /></clipPath></defs><sodipodi:namedview
   id="namedview3"
   pagecolor="#ffffff"
   bordercolor="#000000"
   borderopacity="0.25"
   inkscape:showpageshadow="2"
   inkscape:pageopacity="0.0"
   inkscape:pagecheckerboard="0"
   inkscape:deskcolor="#d1d1d1"
   inkscape:zoom="36.65625"
   inkscape:cx="16"
   inkscape:cy="16"
   inkscape:window-width="2560"
   inkscape:window-height="1369"
   inkscape:window-x="-8"
   inkscape:window-y="-8"
   inkscape:window-maximized="1"
   inkscape:current-layer="Guard" />
    <rect
   id="Artboard1"
   x="0"
   y="0"
   width="32"
   height="32"
   style="fill:none;" />
    <g
   id="Artboard11"
   serif:id="Artboard1">
        <g
   transform="matrix(1.03705,0,0,1.03705,-0.460588,-0.659827)"
   id="g1">
            <g
   id="BG">
                <path
   d="M30.337,8.833C30.337,4.841 27.096,1.601 23.104,1.601L8.64,1.601C4.649,1.601 1.408,4.841 1.408,8.833L1.408,23.297C1.408,27.288 4.649,30.529 8.64,30.529L23.104,30.529C27.096,30.529 30.337,27.288 30.337,23.297L30.337,8.833Z"
   style="fill:none;stroke:#e0e0e0;stroke-width:0.96px;stroke-opacity:1"
   id="path1" />
            </g>
        </g>
        <g
   id="Guard">
            <path
   d="m 15.997,7.724 c 5.058,-0.041 9.06,2.831 9.06,2.831 0,0 -3.245,15.142 -9.054,15.029 -5.459,-0.107 -9.06,-14.94 -9.06,-14.94 0,0 3.92,-2.879 9.054,-2.92 z"
   style="fill:#e0e0e0;stroke:#e0e0e0;stroke-width:2px;stroke-opacity:1;fill-opacity:1"
   id="path2"
   clip-path="url(#clipPath7)"
   inkscape:path-effect="#path-effect7"
   inkscape:original-d="M15.997,7.724C21.055,7.683 25.057,10.555 25.057,10.555C25.057,10.555 21.812,25.697 16.003,25.584C10.544,25.477 6.943,10.644 6.943,10.644C6.943,10.644 10.863,7.765 15.997,7.724Z" />
            <g
   transform="matrix(1,0,0,1,-2.28281,4.09404)"
   id="g3">
                
                
            </g>
        </g>
    </g>
</svg>
