<?xml version="1.0" encoding="UTF-8" standalone="no"?>
<svg
   width="100%"
   height="100%"
   viewBox="0 0 32 32"
   version="1.1"
   xml:space="preserve"
   style="fill-rule:evenodd;clip-rule:evenodd;stroke-linecap:round;stroke-linejoin:round;stroke-miterlimit:1.5;"
   id="svg4"
   sodipodi:docname="not_guard.svg"
   inkscape:version="1.3.2 (091e20e, 2023-11-25, custom)"
   xmlns:inkscape="http://www.inkscape.org/namespaces/inkscape"
   xmlns:sodipodi="http://sodipodi.sourceforge.net/DTD/sodipodi-0.dtd"
   xmlns="http://www.w3.org/2000/svg"
   xmlns:svg="http://www.w3.org/2000/svg"
   xmlns:serif="http://www.serif.com/"><defs
   id="defs4"><inkscape:path-effect
     effect="powerclip"
     id="path-effect4"
     is_visible="true"
     lpeversion="1"
     inverse="true"
     flatten="false"
     hide_clip="false"
     message="Use fill-rule evenodd on &lt;b&gt;fill and stroke&lt;/b&gt; dialog if no flatten result after convert clip to paths." /><clipPath
     clipPathUnits="userSpaceOnUse"
     id="clipPath4"><path
       d="m 15.592489,18.66036 -0.432,-6.064 v -2.544 h 1.744 v 2.544 l -0.416,6.064 z m -0.368,2.848 v -1.6 h 1.616 v 1.6 z"
       style="display:none;fill-rule:nonzero;stroke-width:16"
       id="path4" /><path
       id="lpe_path-effect4"
       style="fill-rule:nonzero;stroke-width:16"
       class="powerclip"
       d="M 0.94301289,1.7235611 H 31.056989 V 31.584643 H 0.94301289 Z M 15.592489,18.66036 h 0.896 l 0.416,-6.064 v -2.544 h -1.744 v 2.544 z m -0.368,2.848 h 1.616 v -1.6 h -1.616 z" /></clipPath></defs><sodipodi:namedview
   id="namedview4"
   pagecolor="#ffffff"
   bordercolor="#000000"
   borderopacity="0.25"
   inkscape:showpageshadow="2"
   inkscape:pageopacity="0.0"
   inkscape:pagecheckerboard="0"
   inkscape:deskcolor="#d1d1d1"
   inkscape:zoom="36.65625"
   inkscape:cx="16"
   inkscape:cy="16"
   inkscape:window-width="2560"
   inkscape:window-height="1369"
   inkscape:window-x="-8"
   inkscape:window-y="-8"
   inkscape:window-maximized="1"
   inkscape:current-layer="svg4" />
    <rect
   id="Artboard1"
   x="0"
   y="0"
   width="32"
   height="32"
   style="fill:none;" />
    <g
   id="Artboard11"
   serif:id="Artboard1">
        <g
   transform="matrix(1.03705,0,0,1.03705,-0.460588,-0.659827)"
   id="g1">
            <g
   id="BG">
                <path
   d="M30.337,8.833C30.337,4.841 27.096,1.601 23.104,1.601L8.64,1.601C4.649,1.601 1.408,4.841 1.408,8.833L1.408,23.297C1.408,27.288 4.649,30.529 8.64,30.529L23.104,30.529C27.096,30.529 30.337,27.288 30.337,23.297L30.337,8.833Z"
   style="fill:none;stroke:#e0e0e0;stroke-width:0.96px;stroke-opacity:1"
   id="path1" />
            </g>
        </g>
        <g
   id="Guard">
            <path
   d="m 15.997,7.724 c 5.058,-0.041 9.06,2.831 9.06,2.831 0,0 -3.245,15.142 -9.054,15.029 -5.459,-0.107 -9.06,-14.94 -9.06,-14.94 0,0 3.92,-2.879 9.054,-2.92 z"
   style="fill:#e0e0e0;stroke:#e0e0e0;stroke-width:2px;stroke-opacity:1;fill-opacity:1"
   id="path2"
   clip-path="url(#clipPath4)"
   inkscape:path-effect="#path-effect4"
   inkscape:original-d="M15.997,7.724C21.055,7.683 25.057,10.555 25.057,10.555C25.057,10.555 21.812,25.697 16.003,25.584C10.544,25.477 6.943,10.644 6.943,10.644C6.943,10.644 10.863,7.765 15.997,7.724Z" />
            <g
   transform="matrix(1,0,0,1,-0.100111,3.77816)"
   id="g4">
                <g
   transform="matrix(16,0,0,16,13.8846,17.7302)"
   id="g3">
                    
                </g>
            </g>
        </g>
    </g>
</svg>
