<?xml version="1.0" encoding="UTF-8" standalone="no"?>
<svg
   width="100%"
   height="100%"
   viewBox="0 0 32 32"
   version="1.1"
   xml:space="preserve"
   style="fill-rule:evenodd;clip-rule:evenodd;stroke-linecap:round;stroke-linejoin:round;stroke-miterlimit:1.5;"
   id="svg3"
   sodipodi:docname="StateCondition.svg"
   inkscape:version="1.3.2 (091e20e, 2023-11-25, custom)"
   xmlns:inkscape="http://www.inkscape.org/namespaces/inkscape"
   xmlns:sodipodi="http://sodipodi.sourceforge.net/DTD/sodipodi-0.dtd"
   xmlns="http://www.w3.org/2000/svg"
   xmlns:svg="http://www.w3.org/2000/svg"><defs
   id="defs3"><inkscape:path-effect
     effect="powerclip"
     id="path-effect2"
     is_visible="true"
     lpeversion="1"
     inverse="true"
     flatten="false"
     hide_clip="false"
     message="Use fill-rule evenodd on &lt;b&gt;fill and stroke&lt;/b&gt; dialog if no flatten result after convert clip to paths." /><clipPath
     clipPathUnits="userSpaceOnUse"
     id="clipPath2"><rect
       style="display:block;fill:#000000;fill-opacity:1;stroke:#e0e0e0;stroke-width:0;stroke-linecap:butt;stroke-linejoin:miter;stroke-miterlimit:0;stroke-dasharray:none;stroke-opacity:0"
       id="rect2"
       width="18.305201"
       height="18.468884"
       x="1.0093777"
       y="12.5763"
       rx="0"
       ry="0" /></clipPath></defs><sodipodi:namedview
   id="namedview3"
   pagecolor="#ffffff"
   bordercolor="#000000"
   borderopacity="0.25"
   inkscape:showpageshadow="2"
   inkscape:pageopacity="0.0"
   inkscape:pagecheckerboard="0"
   inkscape:deskcolor="#d1d1d1"
   inkscape:zoom="36.65625"
   inkscape:cx="16.422847"
   inkscape:cy="15.863598"
   inkscape:window-width="2560"
   inkscape:window-height="1369"
   inkscape:window-x="2552"
   inkscape:window-y="1072"
   inkscape:window-maximized="1"
   inkscape:current-layer="svg3" />
    
    
<path
   sodipodi:type="star"
   style="fill:#e0e0e0;fill-opacity:0;stroke:#e0e0e0;stroke-width:4;stroke-linecap:butt;stroke-linejoin:round;stroke-miterlimit:0;stroke-dasharray:none;stroke-opacity:1"
   id="path3"
   inkscape:flatsided="true"
   sodipodi:sides="8"
   sodipodi:cx="15.98636"
   sodipodi:cy="15.98636"
   sodipodi:r1="13.526936"
   sodipodi:r2="12.497259"
   sodipodi:arg1="1.1775566"
   sodipodi:arg2="1.5702556"
   inkscape:rounded="0"
   inkscape:randomized="0"
   d="m 21.16965,28.480818 -10.353067,0.0056 -7.3246818,-7.316765 -0.0056,-10.353067 7.3167662,-7.3246818 10.353066,-0.0056 7.324682,7.3167662 0.0056,10.353066 z" /><path
   style="font-weight:bold;font-size:21.3333px;font-family:Arial;-inkscape-font-specification:Arial;fill:#e0e0e0;stroke:#e0e0e0;stroke-width:0;stroke-linecap:butt;stroke-miterlimit:0"
   d="m 17.425632,19.523716 h -2.656246 q -0.01042,-0.572915 -0.01042,-0.697915 0,-1.291665 0.427082,-2.124997 0.427083,-0.833332 1.708331,-1.874997 1.281248,-1.041665 1.531248,-1.364581 0.385416,-0.510416 0.385416,-1.124998 0,-0.854165 -0.687499,-1.458331 -0.677082,-0.614583 -1.833331,-0.614583 -1.114581,0 -1.86458,0.635416 -0.749999,0.635416 -1.031248,1.937497 l -2.687496,-0.333333 q 0.114583,-1.86458 1.583331,-3.1666614 1.479164,-1.3020813 3.874994,-1.3020813 2.520829,0 4.01041,1.3229146 1.489581,1.3124981 1.489581,3.0624951 0,0.968748 -0.552083,1.83333 -0.541665,0.864582 -2.333329,2.354163 -0.927082,0.770833 -1.156248,1.239582 -0.21875,0.468749 -0.197917,1.67708 z m -2.656246,3.937494 v -2.927078 h 2.927079 v 2.927078 z"
   id="text3"
   aria-label="?" /></svg>
