<?xml version="1.0" encoding="UTF-8" standalone="no"?>
<svg
   width="100%"
   height="100%"
   viewBox="0 0 32 32"
   version="1.1"
   xml:space="preserve"
   style="fill-rule:evenodd;clip-rule:evenodd;stroke-linecap:round;stroke-linejoin:round;stroke-miterlimit:1.5;"
   id="svg3"
   sodipodi:docname="StringCondition.svg"
   inkscape:version="1.3.2 (091e20e, 2023-11-25, custom)"
   xmlns:inkscape="http://www.inkscape.org/namespaces/inkscape"
   xmlns:sodipodi="http://sodipodi.sourceforge.net/DTD/sodipodi-0.dtd"
   xmlns="http://www.w3.org/2000/svg"
   xmlns:svg="http://www.w3.org/2000/svg"
   xmlns:serif="http://www.serif.com/"><defs
   id="defs3"><inkscape:path-effect
     effect="powerclip"
     id="path-effect3"
     is_visible="true"
     lpeversion="1"
     inverse="true"
     flatten="false"
     hide_clip="false"
     message="Use fill-rule evenodd on &lt;b&gt;fill and stroke&lt;/b&gt; dialog if no flatten result after convert clip to paths." /><inkscape:path-effect
     effect="powerclip"
     id="path-effect7"
     is_visible="true"
     lpeversion="1"
     inverse="true"
     flatten="false"
     hide_clip="false"
     message="Use fill-rule evenodd on &lt;b&gt;fill and stroke&lt;/b&gt; dialog if no flatten result after convert clip to paths." /><clipPath
     clipPathUnits="userSpaceOnUse"
     id="clipPath3"><path
       style="font-weight:bold;font-size:6.66667px;font-family:Arial;-inkscape-font-specification:Arial;display:none"
       d="m 11.828777,16.1211 -0.830079,-0.149739 q 0.139974,-0.501303 0.481771,-0.742188 0.341797,-0.240886 1.015626,-0.240886 0.611979,0 0.911459,0.146485 0.299479,0.143229 0.419922,0.367838 0.123698,0.221355 0.123698,0.817058 l -0.0098,1.067709 q 0,0.455729 0.04232,0.673828 0.04557,0.214844 0.166016,0.46224 h -0.904949 q -0.03581,-0.09115 -0.08789,-0.270182 -0.02279,-0.08138 -0.03255,-0.107422 -0.234375,0.227864 -0.501302,0.341797 -0.266927,0.113932 -0.569662,0.113932 -0.533854,0 -0.843099,-0.289714 -0.30599,-0.289713 -0.30599,-0.732422 0,-0.292969 0.139974,-0.520833 0.139974,-0.23112 0.390626,-0.351563 0.253906,-0.123698 0.729167,-0.214844 0.641276,-0.120443 0.888672,-0.224609 v -0.09115 q 0,-0.263672 -0.130209,-0.374349 -0.130208,-0.113933 -0.491536,-0.113933 -0.244141,0 -0.38086,0.09766 -0.136719,0.0944 -0.221354,0.335286 z m 1.223959,0.742188 q -0.175782,0.05859 -0.556641,0.139974 -0.38086,0.08138 -0.498047,0.159505 -0.179037,0.126954 -0.179037,0.322266 0,0.192058 0.14323,0.332032 0.143229,0.139974 0.364583,0.139974 0.247396,0 0.472005,-0.162761 0.166016,-0.123698 0.2181,-0.302734 0.03581,-0.117188 0.03581,-0.445964 z m 1.761068,1.660157 v -4.772138 h 0.914714 v 1.718751 q 0.423178,-0.481771 1.002605,-0.481771 0.631511,0 1.044922,0.458985 0.413412,0.455729 0.413412,1.311849 0,0.885417 -0.423177,1.363933 -0.419922,0.478516 -1.022136,0.478516 -0.296224,0 -0.585938,-0.146484 -0.286458,-0.14974 -0.494792,-0.439454 v 0.507813 z m 0.908204,-1.803386 q 0,0.537109 0.169271,0.794271 0.23763,0.364584 0.631511,0.364584 0.302734,0 0.514323,-0.257162 0.214844,-0.260417 0.214844,-0.817058 0,-0.592448 -0.214844,-0.852865 -0.214844,-0.263672 -0.550131,-0.263672 -0.328776,0 -0.546875,0.257162 -0.218099,0.253906 -0.218099,0.77474 z m 6.217451,-0.631511 -0.901693,0.162761 q -0.04557,-0.270183 -0.208334,-0.406902 -0.159505,-0.136718 -0.416667,-0.136718 -0.341797,0 -0.546875,0.23763 -0.201823,0.234375 -0.201823,0.787761 0,0.615234 0.205078,0.869141 0.208334,0.253906 0.556641,0.253906 0.260417,0 0.426433,-0.146484 0.166015,-0.14974 0.234375,-0.511068 l 0.898438,0.152995 q -0.139974,0.618489 -0.53711,0.934245 -0.397136,0.315755 -1.064454,0.315755 -0.758463,0 -1.210938,-0.478516 -0.449219,-0.478516 -0.449219,-1.32487 0,-0.85612 0.452475,-1.331381 0.452474,-0.478516 1.223958,-0.478516 0.631511,0 1.002605,0.273438 0.374349,0.270182 0.53711,0.826823 z"
       id="path3"
       aria-label="abc" /><path
       id="lpe_path-effect3"
       style="font-weight:bold;font-size:6.66667px;font-family:Arial;-inkscape-font-specification:Arial"
       class="powerclip"
       d="M 0.94301289,1.7235611 H 31.056989 V 31.584643 H 0.94301289 Z M 11.828777,16.1211 l -2.9e-5,-10e-7 q 0.08464,-0.240886 0.221354,-0.335286 0.136719,-0.09766 0.38086,-0.09766 0.361328,0 0.491536,0.113933 0.130209,0.110677 0.130209,0.374349 v 0.09115 q -0.247396,0.104166 -0.888672,0.224609 -0.475261,0.09115 -0.729167,0.214844 -0.250652,0.120443 -0.390626,0.351563 -0.139974,0.227864 -0.139974,0.520833 0,0.442709 0.30599,0.732422 0.309245,0.289714 0.843099,0.289714 0.302735,0 0.569662,-0.113932 0.266927,-0.113933 0.501302,-0.341797 0.0098,0.02604 0.03255,0.107422 0.05208,0.179032 0.08789,0.270182 h 0.904949 q -0.120446,-0.247396 -0.166016,-0.46224 -0.04232,-0.218099 -0.04232,-0.673828 l 0.0098,-1.067709 q 0,-0.595703 -0.123698,-0.817058 -0.120443,-0.224609 -0.419922,-0.367838 -0.29948,-0.146485 -0.911459,-0.146485 -0.673829,0 -1.015626,0.240886 -0.341797,0.240885 -0.481771,0.742188 z m 1.223959,0.742188 q -0.175782,0.05859 -0.556641,0.139974 -0.38086,0.08138 -0.498047,0.159505 -0.179037,0.126954 -0.179037,0.322266 0,0.192058 0.14323,0.332032 0.143229,0.139974 0.364583,0.139974 0.247396,0 0.472005,-0.162761 0.166016,-0.123698 0.2181,-0.302734 0.03581,-0.117188 0.03581,-0.445964 z m 1.761068,1.660157 h 0.84961 v -0.507813 q 0.208334,0.289714 0.494792,0.439454 0.289714,0.146484 0.585938,0.146484 0.602214,0 1.022136,-0.478516 0.423177,-0.478516 0.423177,-1.363933 0,-0.85612 -0.413412,-1.311849 -0.413411,-0.458985 -1.044922,-0.458985 -0.579427,0 -1.002605,0.481771 v -1.718751 h -0.914714 z m 0.908204,-1.803386 q 0,0.537109 0.169271,0.794271 0.23763,0.364584 0.631511,0.364584 0.302734,0 0.514323,-0.257162 0.214844,-0.260417 0.214844,-0.817058 0,-0.592448 -0.214844,-0.852865 -0.214844,-0.263672 -0.550131,-0.263672 -0.328776,0 -0.546875,0.257162 -0.218099,0.253906 -0.218099,0.77474 z m 6.217451,-0.631511 q -0.162761,-0.556641 -0.53711,-0.826823 -0.371094,-0.273438 -1.002605,-0.273438 -0.771484,0 -1.223958,0.478516 -0.452475,0.475261 -0.452475,1.331381 0,0.846354 0.449219,1.32487 0.452475,0.478516 1.210938,0.478516 0.667318,0 1.064454,-0.315755 0.397136,-0.315756 0.53711,-0.934245 l -0.898438,-0.152995 q -0.06836,0.361328 -0.234375,0.511068 -0.166016,0.146484 -0.426433,0.146484 -0.348307,0 -0.556641,-0.253906 -0.205078,-0.253907 -0.205078,-0.869141 0,-0.553386 0.201823,-0.787761 0.205078,-0.23763 0.546875,-0.23763 0.257162,0 0.416667,0.136718 0.162764,0.136719 0.208334,0.406902 z" /></clipPath></defs><sodipodi:namedview
   id="namedview3"
   pagecolor="#ffffff"
   bordercolor="#000000"
   borderopacity="0.25"
   inkscape:showpageshadow="2"
   inkscape:pageopacity="0.0"
   inkscape:pagecheckerboard="0"
   inkscape:deskcolor="#d1d1d1"
   inkscape:zoom="36.65625"
   inkscape:cx="15.98636"
   inkscape:cy="16.02728"
   inkscape:window-width="1920"
   inkscape:window-height="1094"
   inkscape:window-x="-11"
   inkscape:window-y="-11"
   inkscape:window-maximized="1"
   inkscape:current-layer="Guard" />
    <rect
   id="Artboard1"
   x="0"
   y="0"
   width="32"
   height="32"
   style="fill:none;" />
    <g
   id="Artboard11"
   serif:id="Artboard1">
        <g
   transform="matrix(1.03705,0,0,1.03705,-0.460588,-0.659827)"
   id="g1">
            <g
   id="BG">
                <path
   d="M30.337,8.833C30.337,4.841 27.096,1.601 23.104,1.601L8.64,1.601C4.649,1.601 1.408,4.841 1.408,8.833L1.408,23.297C1.408,27.288 4.649,30.529 8.64,30.529L23.104,30.529C27.096,30.529 30.337,27.288 30.337,23.297L30.337,8.833Z"
   style="fill:none;stroke:#e0e0e0;stroke-width:0.96px;stroke-opacity:1"
   id="path1" />
            </g>
        </g>
        <g
   id="Guard">
            <path
   d="m 15.997,7.724 c 5.058,-0.041 9.06,2.831 9.06,2.831 0,0 -3.245,15.142 -9.054,15.029 -5.459,-0.107 -9.06,-14.94 -9.06,-14.94 0,0 3.92,-2.879 9.054,-2.92 z"
   style="fill:#e0e0e0;stroke:#e0e0e0;stroke-width:2px;stroke-opacity:1;fill-opacity:1"
   id="path2"
   clip-path="url(#clipPath3)"
   inkscape:path-effect="#path-effect3"
   inkscape:original-d="M15.997,7.724C21.055,7.683 25.057,10.555 25.057,10.555C25.057,10.555 21.812,25.697 16.003,25.584C10.544,25.477 6.943,10.644 6.943,10.644C6.943,10.644 10.863,7.765 15.997,7.724Z" />
            
        </g>
    </g>
</svg>
