<?xml version="1.0" encoding="UTF-8" standalone="no"?>
<svg
   width="100%"
   height="100%"
   viewBox="0 0 32 32"
   version="1.1"
   xml:space="preserve"
   style="fill-rule:evenodd;clip-rule:evenodd;stroke-linecap:round;stroke-linejoin:round;stroke-miterlimit:1.5;"
   id="svg3"
   sodipodi:docname="StringCondition.svg"
   inkscape:version="1.3.2 (091e20e, 2023-11-25, custom)"
   xmlns:inkscape="http://www.inkscape.org/namespaces/inkscape"
   xmlns:sodipodi="http://sodipodi.sourceforge.net/DTD/sodipodi-0.dtd"
   xmlns="http://www.w3.org/2000/svg"
   xmlns:svg="http://www.w3.org/2000/svg"
   xmlns:serif="http://www.serif.com/"><defs
   id="defs3"><inkscape:path-effect
     effect="powerclip"
     id="path-effect4"
     is_visible="true"
     lpeversion="1"
     inverse="true"
     flatten="false"
     hide_clip="false"
     message="Use fill-rule evenodd on &lt;b&gt;fill and stroke&lt;/b&gt; dialog if no flatten result after convert clip to paths." /><inkscape:path-effect
     effect="powerclip"
     id="path-effect7"
     is_visible="true"
     lpeversion="1"
     inverse="true"
     flatten="false"
     hide_clip="false"
     message="Use fill-rule evenodd on &lt;b&gt;fill and stroke&lt;/b&gt; dialog if no flatten result after convert clip to paths." /><clipPath
     clipPathUnits="userSpaceOnUse"
     id="clipPath4"><path
       style="font-weight:bold;font-size:8px;font-family:Arial;-inkscape-font-specification:Arial;display:none"
       d="M 10.615334,16.02256 9.6192398,15.842873 q 0.1679688,-0.601563 0.5781252,-0.890625 0.410156,-0.289063 1.21875,-0.289063 0.734375,0 1.09375,0.175781 0.359375,0.171875 0.503906,0.441407 0.148438,0.265625 0.148438,0.980468 l -0.01172,1.28125 q 0,0.546875 0.05078,0.808594 0.05469,0.257813 0.199219,0.554688 H 12.31455 q -0.04297,-0.109375 -0.105468,-0.324219 -0.02734,-0.09766 -0.03906,-0.128906 -0.28125,0.273437 -0.601562,0.410156 -0.320313,0.136719 -0.683594,0.136719 -0.640625,0 -1.0117189,-0.347657 -0.3671875,-0.347656 -0.3671875,-0.878906 0,-0.351562 0.1679687,-0.625 0.1679688,-0.277344 0.4687497,-0.421875 0.304688,-0.148437 0.875,-0.257812 0.769532,-0.144532 1.066407,-0.269532 v -0.109375 q 0,-0.316406 -0.15625,-0.449218 -0.15625,-0.136719 -0.589844,-0.136719 -0.292969,0 -0.457031,0.117187 -0.164063,0.113282 -0.265625,0.402344 z m 1.46875,0.890625 q -0.210938,0.07031 -0.667969,0.167969 -0.457031,0.09766 -0.597656,0.191406 -0.214844,0.152344 -0.214844,0.386719 0,0.230469 0.171875,0.398437 0.171875,0.167969 0.4375,0.167969 0.296875,0 0.566406,-0.195312 0.199219,-0.148438 0.261719,-0.363282 0.04297,-0.140625 0.04297,-0.535156 z m 2.113281,1.992188 V 13.17881 h 1.097656 v 2.0625 q 0.507813,-0.578125 1.203125,-0.578125 0.757813,0 1.253906,0.550781 0.496094,0.546875 0.496094,1.574219 0,1.0625 -0.507812,1.636719 -0.503907,0.574219 -1.226563,0.574219 -0.355469,0 -0.703125,-0.175782 -0.34375,-0.179687 -0.59375,-0.527343 v 0.609375 z m 1.089844,-2.164063 q 0,0.644531 0.203125,0.953125 0.285156,0.4375 0.757812,0.4375 0.363281,0 0.617188,-0.308594 0.257812,-0.3125 0.257812,-0.980468 0,-0.710938 -0.257812,-1.023438 -0.257813,-0.316406 -0.660157,-0.316406 -0.394531,0 -0.65625,0.308594 -0.261718,0.304687 -0.261718,0.929687 z m 7.460937,-0.757812 -1.082031,0.195312 q -0.05469,-0.324219 -0.25,-0.488281 -0.191406,-0.164063 -0.5,-0.164063 -0.410156,0 -0.65625,0.285157 -0.242188,0.28125 -0.242188,0.945312 0,0.738281 0.246094,1.042969 0.25,0.304687 0.667969,0.304687 0.3125,0 0.511719,-0.175781 0.199218,-0.179687 0.28125,-0.613281 l 1.078125,0.183594 q -0.167969,0.742187 -0.644532,1.121093 -0.476562,0.378907 -1.277343,0.378907 -0.910157,0 -1.453125,-0.574219 -0.539063,-0.574219 -0.539063,-1.589844 0,-1.027344 0.542969,-1.597656 0.542969,-0.574219 1.46875,-0.574219 0.757812,0 1.203125,0.328125 0.449219,0.324219 0.644531,0.992188 z"
       id="path4"
       aria-label="abc" /><path
       id="lpe_path-effect4"
       style="font-weight:bold;font-size:8px;font-family:Arial;-inkscape-font-specification:Arial"
       class="powerclip"
       d="M 0.94301289,1.7235611 H 31.056989 V 31.584643 H 0.94301289 Z M 10.615334,16.02256 h 10e-7 q 0.101562,-0.289062 0.265625,-0.402344 0.164062,-0.117187 0.457031,-0.117187 0.433594,0 0.589844,0.136719 0.15625,0.132812 0.15625,0.449218 v 0.109375 q -0.296875,0.125 -1.066407,0.269532 -0.570312,0.109375 -0.875,0.257812 -0.3007809,0.144531 -0.4687497,0.421875 -0.1679687,0.273438 -0.1679687,0.625 0,0.53125 0.3671875,0.878906 0.3710939,0.347657 1.0117189,0.347657 0.363281,0 0.683594,-0.136719 0.320312,-0.136719 0.601562,-0.410156 0.01172,0.03125 0.03906,0.128906 0.0625,0.214844 0.105468,0.324219 h 1.085938 q -0.144529,-0.296875 -0.199219,-0.554688 -0.05078,-0.261719 -0.05078,-0.808594 l 0.01172,-1.28125 q 0,-0.714843 -0.148438,-0.980468 -0.144531,-0.269532 -0.503906,-0.441407 -0.359375,-0.175781 -1.09375,-0.175781 -0.808594,0 -1.21875,0.289063 -0.4101564,0.289062 -0.5781252,0.890625 z m 1.46875,0.890625 q -0.210938,0.07031 -0.667969,0.167969 -0.457031,0.09766 -0.597656,0.191406 -0.214844,0.152344 -0.214844,0.386719 0,0.230469 0.171875,0.398437 0.171875,0.167969 0.4375,0.167969 0.296875,0 0.566406,-0.195312 0.199219,-0.148438 0.261719,-0.363282 0.04297,-0.140625 0.04297,-0.535156 z m 2.113281,1.992188 h 1.019531 v -0.609375 q 0.25,0.347656 0.59375,0.527343 0.347656,0.175782 0.703125,0.175782 0.722656,0 1.226563,-0.574219 0.507812,-0.574219 0.507812,-1.636719 0,-1.027344 -0.496094,-1.574219 -0.496093,-0.550781 -1.253906,-0.550781 -0.695312,0 -1.203125,0.578125 v -2.0625 h -1.097656 z m 1.089844,-2.164063 q 0,0.644531 0.203125,0.953125 0.285156,0.4375 0.757812,0.4375 0.363281,0 0.617188,-0.308594 0.257812,-0.3125 0.257812,-0.980468 0,-0.710938 -0.257812,-1.023438 -0.257813,-0.316406 -0.660157,-0.316406 -0.394531,0 -0.65625,0.308594 -0.261718,0.304687 -0.261718,0.929687 z m 7.460937,-0.757812 q -0.195312,-0.667969 -0.644531,-0.992188 -0.445313,-0.328125 -1.203125,-0.328125 -0.925781,0 -1.46875,0.574219 -0.542969,0.570312 -0.542969,1.597656 0,1.015625 0.539063,1.589844 0.542968,0.574219 1.453125,0.574219 0.800781,0 1.277343,-0.378907 0.476563,-0.378906 0.644532,-1.121093 l -1.078125,-0.183594 q -0.08203,0.433594 -0.28125,0.613281 -0.199219,0.175781 -0.511719,0.175781 -0.417969,0 -0.667969,-0.304687 -0.246094,-0.304688 -0.246094,-1.042969 0,-0.664062 0.242188,-0.945312 0.246094,-0.285157 0.65625,-0.285157 0.308594,0 0.5,0.164063 0.19531,0.164062 0.25,0.488281 z" /></clipPath></defs><sodipodi:namedview
   id="namedview3"
   pagecolor="#ffffff"
   bordercolor="#000000"
   borderopacity="0.25"
   inkscape:showpageshadow="2"
   inkscape:pageopacity="0.0"
   inkscape:pagecheckerboard="0"
   inkscape:deskcolor="#d1d1d1"
   inkscape:zoom="36.65625"
   inkscape:cx="15.98636"
   inkscape:cy="16.02728"
   inkscape:window-width="1920"
   inkscape:window-height="1094"
   inkscape:window-x="-11"
   inkscape:window-y="-11"
   inkscape:window-maximized="1"
   inkscape:current-layer="Guard" />
    <rect
   id="Artboard1"
   x="0"
   y="0"
   width="32"
   height="32"
   style="fill:none;" />
    <g
   id="Artboard11"
   serif:id="Artboard1">
        <g
   transform="matrix(1.03705,0,0,1.03705,-0.460588,-0.659827)"
   id="g1">
            <g
   id="BG">
                <path
   d="M30.337,8.833C30.337,4.841 27.096,1.601 23.104,1.601L8.64,1.601C4.649,1.601 1.408,4.841 1.408,8.833L1.408,23.297C1.408,27.288 4.649,30.529 8.64,30.529L23.104,30.529C27.096,30.529 30.337,27.288 30.337,23.297L30.337,8.833Z"
   style="fill:none;stroke:#e0e0e0;stroke-width:0.96px;stroke-opacity:1"
   id="path1" />
            </g>
        </g>
        <g
   id="Guard">
            <path
   d="m 15.997,7.724 c 5.058,-0.041 9.06,2.831 9.06,2.831 0,0 -3.245,15.142 -9.054,15.029 -5.459,-0.107 -9.06,-14.94 -9.06,-14.94 0,0 3.92,-2.879 9.054,-2.92 z"
   style="fill:#e0e0e0;stroke:#e0e0e0;stroke-width:2px;stroke-opacity:1;fill-opacity:1"
   id="path2"
   clip-path="url(#clipPath4)"
   inkscape:path-effect="#path-effect4"
   inkscape:original-d="M15.997,7.724C21.055,7.683 25.057,10.555 25.057,10.555C25.057,10.555 21.812,25.697 16.003,25.584C10.544,25.477 6.943,10.644 6.943,10.644C6.943,10.644 10.863,7.765 15.997,7.724Z" />
            
        </g>
    </g>
</svg>
